<svg xmlns="http://www.w3.org/2000/svg" width="1000" height="642" viewBox="0 0 1000 642">
  <metadata><?xpacket begin="﻿" id="W5M0MpCehiHzreSzNTczkc9d"?>
<x:xmpmeta xmlns:x="adobe:ns:meta/" x:xmptk="Adobe XMP Core 5.6-c138 79.159824, 2016/09/14-01:09:01        ">
   <rdf:RDF xmlns:rdf="http://www.w3.org/1999/02/22-rdf-syntax-ns#">
      <rdf:Description rdf:about=""/>
   </rdf:RDF>
</x:xmpmeta>
                                                                                                    
                                                                                                    
                                                                                                    
                                                                                                    
                                                                                                    
                                                                                                    
                                                                                                    
                                                                                                    
                                                                                                    
                                                                                                    
                                                                                                    
                                                                                                    
                                                                                                    
                                                                                                    
                                                                                                    
                                                                                                    
                                                                                                    
                                                                                                    
                                                                                                    
                                                                                                    
                           
<?xpacket end="w"?></metadata>
<defs>
    <style>
      .cls-1, .cls-2 {
        fill: #3f4b5e;
      }

      .cls-1 {
        fill-rule: evenodd;
      }

      .cls-2 {
        font-size: 72px;
        text-anchor: middle;
        font-family: Arial;
      }
    </style>
  </defs>
  <path class="cls-1" d="M346.861,60.348v76.919a67.518,67.518,0,0,0-20.215,3.374l-6.738,1.349v0.675h-2.021v0.675l-4.043.674v0.675l-2.7.675v0.675h-2.021v0.674l-4.043,1.35v0.675l-2.695.674-0.674,1.35-4.043,1.349q-0.336.675-.674,1.35h-1.347v0.674l-2.022.675q-0.336.675-.674,1.35h-1.347l-1.348,2.024h-1.347q-0.338.674-.674,1.349l-2.022.675-3.369,4.048H281.5l-4.043,4.723-2.022,1.35v1.349l-4.043,3.374q-0.336,1.013-.674,2.024l-2.021,1.349v1.35l-1.348.675V181.8l-2.021,1.35V184.5l-1.348.675q-0.336,1.349-.673,2.7l-1.348.674v1.35l-1.348,1.349v1.35h-0.674v1.349h-0.673v1.35h-0.674v1.349h-0.674q-0.673,2.023-1.348,4.048H255.9v2.025h-0.674v1.349h-0.674q-0.337,2.023-.674,4.048c-6.668,17.031-7.774,43.255-1.348,61.4v2.7l8.086,18.892,1.348,0.675q0.674,2.024,1.348,4.048l1.347,0.675v1.349h0.674q0.337,1.013.674,2.024l1.347,0.675v1.35l1.348,0.674q0.338,1.012.674,2.024l2.695,2.025c10.684,14.881,26.62,24.669,44.472,32.387h2.021v0.674h2.022v0.675H322.6v0.675h2.7v0.674h2.7v0.675h2.695v0.675l8.086,0.675v0.674c2.521,0.724,5.777-.756,7.412.675,1,1.15.67,3.917,0.674,6.073V422c-25.059.544-46.785-3.966-64.013-11.47l-4.043-.675v-0.675l-2.695-.675v-0.674h-2.021v-0.675l-2.7-.675v-0.675h-1.347v-0.674h-2.022v-0.675l-2.695-.675V403.11l-2.695-.675q-0.338-.675-0.674-1.35h-1.348v-0.674h-1.347v-0.675h-1.348l-1.348-1.35h-1.347q-0.338-.674-0.674-1.349l-2.695-.675q-0.338-.674-0.674-1.349h-1.348q-0.336-.675-0.674-1.35H247.81q-0.337-.673-0.674-1.349l-2.695-.675q-0.675-1.011-1.348-2.024h-1.348q-0.336-.675-0.673-1.349h-1.348l-0.674-1.35-2.021-.675-1.348-2.024h-1.348l-2.021-2.7h-1.348L227.6,377.47h-1.347l-7.412-8.1L209.4,360.6v-1.35l-3.369-2.7V355.2l-2.695-2.024v-1.35l-2.022-1.349v-1.35l-2.021-1.349v-1.349l-1.348-.675v-1.35l-2.021-1.349v-1.35l-1.348-.674q-0.336-1.35-.674-2.7l-1.347-.675v-1.349l-1.348-.675q-0.336-1.35-.674-2.7l-1.347-.675v-1.349h-0.674q-0.674-2.025-1.348-4.049l-1.347-.674q-0.338-1.35-.674-2.7h-0.674q-0.674-2.025-1.348-4.049H182.45v-2.024h-0.674V316.07H181.1q-0.674-2.025-1.348-4.049h-0.673V310h-0.674v-1.349h-0.674q-0.337-2.025-.674-4.049h-0.674V303.25h-0.674q-0.336-2.024-.673-4.048c-10.334-26.277-13.8-75.082-3.369-104.583v-2.7h0.673v-2.7h0.674V187.2h0.674v-2.024h0.674v-2.024h0.674q0.336-2.025.673-4.049h0.674v-1.349h0.674q0.338-2.025.674-4.049h0.674v-1.349h0.674v-2.024h0.673q0.675-2.025,1.348-4.049h0.674v-1.349h0.674v-2.024h0.673q0.675-2.025,1.348-4.049h0.674q0.336-1.349.674-2.7l1.347-.675v-1.35h0.674v-1.349l1.348-1.35v-1.349l1.347-.675q0.338-1.349.674-2.7h0.674q0.338-1.011.674-2.024l1.347-.675q0.337-1.349.674-2.7l1.348-.675v-1.35l2.021-1.349v-1.35l1.348-.674v-1.35q0.674-.338,1.348-0.674,0.336-1.013.673-2.025l2.022-1.349v-1.35l2.695-2.024V125.8l3.369-2.7v-1.35l12.129-11.47,4.717-5.4H227.6l3.369-4.048h1.348l2.021-2.7h1.348l1.348-2.024,2.021-.675,0.674-1.35h1.348l0.673-1.349h1.348q0.674-1.012,1.348-2.024l2.695-.675,0.674-1.349h1.347q0.338-.675.674-1.349h1.348q0.336-.675.674-1.35l2.695-.675q0.336-.675.674-1.349h1.347V83.289h1.348V82.614h1.348l1.347-1.35h1.348q0.336-.675.674-1.349l2.695-.675V78.566l2.695-.675V77.217h2.022V76.542h1.347V75.867l2.7-.675V74.518h2.021V73.843l2.695-.675V72.493l4.043-.675V71.144H284.2V70.469h2.021V69.795h2.022V69.12h2.021V68.445h2.022V67.77h2.695C309.97,62.409,326.431,60.543,346.861,60.348Zm48.514,0H649.4c7.787,0,18.367-1.183,24.931.675h6.738c3.78,1.085,9.117,1.571,12.8,2.7h3.369l23.583,6.747v0.675h1.348v0.675l4.043,0.675v0.675l2.695,0.675v0.675h2.022v0.675l2.695,0.675v0.675h1.347v0.675H737v0.675l2.7,0.675v0.675l2.695,0.675q0.337,0.675.674,1.349h1.348V81.94h1.348v0.675h1.347l1.348,1.349H749.8q0.337,0.675.674,1.349l2.7,0.675,0.673,1.35h1.348l0.674,1.349h1.347q0.337,0.675.674,1.349l2.695,0.675q0.675,1.012,1.348,2.024h1.348q0.336,0.675.674,1.349H765.3l1.348,2.024H768q0.675,1.012,1.348,2.024h1.348l2.021,2.7h1.348l3.369,4.048h1.348l6.064,6.748,10.781,10.12v1.35l3.369,2.7v1.349l2.7,2.024v1.35l2.022,1.349v1.35l2.021,1.349v1.35l1.348,0.674v1.35l2.021,1.349v1.35l1.348,0.675q0.336,1.349.674,2.7h0.673q0.337,1.012.674,2.025l1.348,0.674v1.35h0.674v1.349l1.347,0.675v1.349h0.674v1.35l1.348,1.349v1.35l1.347,0.675q0.337,1.349.674,2.7h0.674q0.673,2.025,1.348,4.049h0.674v2.024h0.673v1.349h0.674q0.673,2.025,1.348,4.049h0.674l8.759,26.314v3.374h0.674v2.7h0.674v3.373h0.674v3.374H837.4v4.723h0.674v4.723h0.674v6.747c1.619,5.832.674,15.25,0.674,22.266v8.772h-0.674v6.747h-0.674v4.723H837.4v4.723h-0.673q-0.337,3.374-.674,6.748h-0.674q-0.337,3.036-.674,6.072h-0.674l-1.347,7.422h-0.674v2.024h-0.674v2.024H830.66V299.2h-0.673q-0.337,2.024-.674,4.048h-0.674V304.6h-0.674q-0.337,2.025-.674,4.049h-0.674V310h-0.673v2.024H825.27q-0.338,1.35-.674,2.7h-0.674v1.35h-0.674v2.024h-0.673q-0.675,2.023-1.348,4.048h-0.674v1.35h-0.674q-0.336,1.349-.674,2.7l-1.347.674v1.35h-0.674v1.349l-1.348,1.35v1.349l-1.347.675q-0.338,1.35-.674,2.7h-0.674q-0.336,1.012-.674,2.024l-1.347.675q-0.337,1.349-.674,2.7l-1.348.674v1.35l-2.021,1.349v1.35l-1.348.675v1.349l-1.347.675q-0.337,1.011-.674,2.024l-2.022,1.349v1.35l-2.7,2.024v1.349l-3.369,2.7v1.35l-12.129,11.47-4.716,5.4h-1.348l-3.369,4.048h-1.348l-2.021,2.7h-1.348q-0.673,1.013-1.348,2.024l-2.021.675-0.674,1.35h-1.347q-0.338.673-.674,1.349h-1.348q-0.674,1.013-1.348,2.024l-2.695.675v0.675l-2.021.674-0.674,1.35h-1.348q-0.336.675-.673,1.349l-2.7.675q-0.336.675-.674,1.349h-1.347l-1.348,1.35H745.76v0.675l-2.7.674q-0.336.675-.674,1.35l-2.695.675v0.674l-2.7.675v0.675h-2.022v0.674h-1.347v0.675l-2.695.675v0.675h-2.022v0.674l-2.695.675v0.675l-4.043.675v0.674h-1.348v0.675l-23.583,6.747h-3.369V419.3h-4.043v0.675H685.79v0.674h-4.717v0.675l-28.3.675h-257.4V345.083h250.66c10.484,0,21.551.381,29.648-2.024h4.043l19.54-6.073v-0.674l4.043-1.35v-0.675h1.348v-0.674H706v-0.675h1.348v-0.675H708.7l1.347-1.349H711.4v-0.675l2.021-.675q0.337-.674.674-1.349h1.348V327.54l2.021-.675q0.337-.673.674-1.349h1.348l1.347-2.024h1.348q0.673-1.012,1.348-2.024h1.347l0.674-1.35c1.667-1.577,4.472-4.759,6.738-5.4,0.618-2.3,3.2-4.465,4.717-6.072l1.348-.675v-1.349l2.7-2.025V303.25l2.021-1.349v-1.35l1.348-.675v-1.349l1.348-.675q0.336-1.011.673-2.024h0.674q0.338-1.35.674-2.7l1.348-.675,1.347-4.048h0.674v-1.349h0.674v-1.35H752.5l1.347-4.048h0.674v-2.024h0.674v-1.35h0.674v-2.024h0.674v-2.024h0.673v-2.024h0.674v-2.025h0.674v-2.7h0.674v-2.7h0.674v-2.7h0.673v-4.049h0.674V254h0.674v-8.1h0.674q-0.338-8.77-.674-17.543h-0.674v-4.723h-0.674v-3.373H759.91v-3.374h-0.674v-2.7h-0.674v-2.024h-0.674v-2.024h-0.674v-2.025h-0.673v-2.024h-0.674q-0.337-2.023-.674-4.048h-0.674q-0.336-1.35-.674-2.7h-0.673v-1.349H752.5v-2.025h-0.674v-1.349H751.15v-1.35L749.8,192.6v-1.35h-0.673V189.9l-1.348-1.35V187.2h-0.674q-0.336-1.013-.674-2.024l-1.347-.675v-1.349l-1.348-.675v-1.35l-2.021-1.349v-1.35l-2.022-1.349v-1.349l-4.043-3.374V171q-2.694-2.361-5.39-4.723l-2.022-2.7h-1.347q-1.349-1.687-2.7-3.374H722.85l-0.674-1.35H721.5l-0.674-1.349h-1.347q-0.338-.675-0.674-1.349h-1.348l-1.347-2.025-2.7-.674-0.673-1.35-2.7-.675-0.674-1.349-4.042-1.349v-0.675h-1.348v-0.675l-4.043-1.349v-0.675h-2.021v-0.675h-1.348v-0.675l-18.867-5.4h-4.043c-7.206-2.094-17.829-1.35-26.952-1.35H395.375V60.348Z"/>
  <text id="STAKEUNITED" class="cls-2" transform="translate(500.496 576.156) scale(1.844 1.844)"><tspan x="0">STAKEUNITED</tspan></text>
</svg>
